<svg xmlns="http://www.w3.org/2000/svg" xmlns:xlink="http://www.w3.org/1999/xlink" width="500" zoomAndPan="magnify" viewBox="0 0 375 112.499997" height="150" preserveAspectRatio="xMidYMid meet" version="1.0"><defs><g/></defs><g fill="#282642" fill-opacity="1"><g transform="translate(0.604164, 85.725965)"><g><path d="M 7.46875 0 C 6.800781 0 6.222656 -0.238281 5.734375 -0.71875 C 5.242188 -1.207031 5 -1.785156 5 -2.453125 L 5 -61.25 C 5 -61.914062 5.242188 -62.488281 5.734375 -62.96875 C 6.222656 -63.457031 6.800781 -63.703125 7.46875 -63.703125 L 34.40625 -63.703125 C 43.144531 -63.703125 49.96875 -61.742188 54.875 -57.828125 C 59.789062 -53.921875 62.25 -48.507812 62.25 -41.59375 C 62.25 -37.644531 61.367188 -34.171875 59.609375 -31.171875 C 57.847656 -28.171875 55.453125 -25.695312 52.421875 -23.75 L 63.625 -3 C 63.800781 -2.632812 63.890625 -2.300781 63.890625 -2 C 63.890625 -1.457031 63.691406 -0.988281 63.296875 -0.59375 C 62.898438 -0.195312 62.429688 0 61.890625 0 L 43.234375 0 C 42.140625 0 41.273438 -0.253906 40.640625 -0.765625 C 40.003906 -1.285156 39.5625 -1.847656 39.3125 -2.453125 L 31.484375 -19.84375 L 27.765625 -19.84375 L 27.765625 -2.453125 C 27.765625 -1.785156 27.519531 -1.207031 27.03125 -0.71875 C 26.539062 -0.238281 25.960938 0 25.296875 0 Z M 34.40625 -37.140625 C 35.738281 -37.140625 36.769531 -37.578125 37.5 -38.453125 C 38.226562 -39.335938 38.59375 -40.445312 38.59375 -41.78125 C 38.59375 -43.113281 38.242188 -44.28125 37.546875 -45.28125 C 36.847656 -46.28125 35.800781 -46.78125 34.40625 -46.78125 L 27.765625 -46.78125 L 27.765625 -37.140625 Z M 34.40625 -37.140625 "/></g></g></g><g fill="#282642" fill-opacity="1"><g transform="translate(66.315838, 85.725965)"><g><path d="M 28.578125 0.90625 C 20.328125 0.90625 13.925781 -1.109375 9.375 -5.140625 C 4.820312 -9.171875 2.546875 -15.316406 2.546875 -23.578125 L 2.546875 -24.203125 C 2.671875 -31.910156 5.050781 -37.84375 9.6875 -42 C 14.332031 -46.15625 20.597656 -48.234375 28.484375 -48.234375 C 34.191406 -48.234375 39 -47.125 42.90625 -44.90625 C 46.820312 -42.695312 49.71875 -39.726562 51.59375 -36 C 53.476562 -32.269531 54.421875 -28.097656 54.421875 -23.484375 L 54.421875 -20.75 C 54.421875 -20.082031 54.175781 -19.503906 53.6875 -19.015625 C 53.207031 -18.535156 52.632812 -18.296875 51.96875 -18.296875 L 24.84375 -18.296875 L 24.84375 -17.84375 C 24.84375 -15.957031 25.113281 -14.554688 25.65625 -13.640625 C 26.207031 -12.734375 27.117188 -12.28125 28.390625 -12.28125 C 28.878906 -12.28125 29.273438 -12.382812 29.578125 -12.59375 C 29.878906 -12.8125 30.363281 -13.253906 31.03125 -13.921875 C 31.582031 -14.472656 32.039062 -14.820312 32.40625 -14.96875 C 32.769531 -15.125 33.316406 -15.203125 34.046875 -15.203125 L 51.234375 -15.203125 C 51.785156 -15.203125 52.257812 -15.035156 52.65625 -14.703125 C 53.050781 -14.367188 53.25 -13.925781 53.25 -13.375 C 53.25 -11.675781 52.304688 -9.6875 50.421875 -7.40625 C 48.535156 -5.132812 45.726562 -3.179688 42 -1.546875 C 38.269531 0.0859375 33.796875 0.90625 28.578125 0.90625 Z M 32.125 -29.671875 L 32.125 -29.765625 C 32.125 -33.585938 30.910156 -35.5 28.484375 -35.5 C 26.054688 -35.5 24.84375 -33.585938 24.84375 -29.765625 L 24.84375 -29.671875 Z M 32.125 -29.671875 "/></g></g></g><g fill="#282642" fill-opacity="1"><g transform="translate(123.017182, 85.725965)"><g><path d="M 6.546875 0 C 5.878906 0 5.300781 -0.238281 4.8125 -0.71875 C 4.332031 -1.207031 4.09375 -1.785156 4.09375 -2.453125 L 4.09375 -44.875 C 4.09375 -45.539062 4.332031 -46.113281 4.8125 -46.59375 C 5.300781 -47.082031 5.878906 -47.328125 6.546875 -47.328125 L 22.484375 -47.328125 C 23.148438 -47.328125 23.722656 -47.082031 24.203125 -46.59375 C 24.691406 -46.113281 24.9375 -45.539062 24.9375 -44.875 L 24.9375 -41.859375 C 26.507812 -43.742188 28.644531 -45.273438 31.34375 -46.453125 C 34.050781 -47.640625 36.953125 -48.234375 40.046875 -48.234375 C 43.265625 -48.234375 46.207031 -47.488281 48.875 -46 C 51.539062 -44.519531 53.675781 -42.234375 55.28125 -39.140625 C 56.894531 -36.046875 57.703125 -32.191406 57.703125 -27.578125 L 57.703125 -2.453125 C 57.703125 -1.785156 57.457031 -1.207031 56.96875 -0.71875 C 56.488281 -0.238281 55.914062 0 55.25 0 L 37.859375 0 C 37.191406 0 36.613281 -0.238281 36.125 -0.71875 C 35.644531 -1.207031 35.40625 -1.785156 35.40625 -2.453125 L 35.40625 -26.9375 C 35.40625 -28.570312 35.007812 -29.816406 34.21875 -30.671875 C 33.425781 -31.523438 32.304688 -31.953125 30.859375 -31.953125 C 29.398438 -31.953125 28.273438 -31.523438 27.484375 -30.671875 C 26.691406 -29.816406 26.296875 -28.570312 26.296875 -26.9375 L 26.296875 -2.453125 C 26.296875 -1.785156 26.050781 -1.207031 25.5625 -0.71875 C 25.082031 -0.238281 24.507812 0 23.84375 0 Z M 6.546875 0 "/></g></g></g><g fill="#282642" fill-opacity="1"><g transform="translate(184.360207, 85.725965)"><g><path d="M 19.203125 0.90625 C 15.804688 0.90625 12.753906 0.269531 10.046875 -1 C 7.347656 -2.269531 5.253906 -4 3.765625 -6.1875 C 2.285156 -8.375 1.546875 -10.832031 1.546875 -13.5625 C 1.546875 -21.75 8.191406 -27 21.484375 -29.3125 L 31.125 -30.859375 L 31.125 -30.9375 C 31.125 -32.695312 30.972656 -33.894531 30.671875 -34.53125 C 30.367188 -35.175781 29.609375 -35.5 28.390625 -35.5 C 27.722656 -35.5 27.144531 -35.375 26.65625 -35.125 C 26.175781 -34.882812 25.664062 -34.523438 25.125 -34.046875 C 24.570312 -33.554688 24.097656 -33.1875 23.703125 -32.9375 C 23.316406 -32.695312 22.785156 -32.578125 22.109375 -32.578125 L 6.640625 -32.578125 C 6.097656 -32.578125 5.628906 -32.742188 5.234375 -33.078125 C 4.835938 -33.410156 4.640625 -33.851562 4.640625 -34.40625 C 4.640625 -36.164062 5.503906 -38.132812 7.234375 -40.3125 C 8.960938 -42.5 11.628906 -44.363281 15.234375 -45.90625 C 18.847656 -47.457031 23.296875 -48.234375 28.578125 -48.234375 C 36.710938 -48.234375 42.8125 -46.535156 46.875 -43.140625 C 50.9375 -39.742188 52.96875 -34.890625 52.96875 -28.578125 L 52.96875 -2.453125 C 52.96875 -1.785156 52.722656 -1.207031 52.234375 -0.71875 C 51.753906 -0.238281 51.179688 0 50.515625 0 L 34.578125 0 C 33.910156 0 33.332031 -0.238281 32.84375 -0.71875 C 32.363281 -1.207031 32.125 -1.785156 32.125 -2.453125 L 32.125 -5 C 30.789062 -3.1875 29 -1.75 26.75 -0.6875 C 24.507812 0.375 21.992188 0.90625 19.203125 0.90625 Z M 25.484375 -12.5625 C 27.304688 -12.5625 28.75 -13.132812 29.8125 -14.28125 C 30.875 -15.4375 31.40625 -17.195312 31.40625 -19.5625 L 31.40625 -19.65625 L 26.03125 -18.46875 C 23.363281 -17.863281 22.03125 -16.742188 22.03125 -15.109375 C 22.03125 -14.378906 22.332031 -13.769531 22.9375 -13.28125 C 23.539062 -12.800781 24.390625 -12.5625 25.484375 -12.5625 Z M 25.484375 -12.5625 "/></g></g></g><g fill="#282642" fill-opacity="1"><g transform="translate(240.970529, 85.725965)"><g><path d="M 33.40625 0 C 26.238281 0 20.65625 -1.5 16.65625 -4.5 C 12.65625 -7.507812 10.65625 -12.53125 10.65625 -19.5625 L 10.65625 -31.40625 L 3.453125 -31.40625 C 2.785156 -31.40625 2.207031 -31.644531 1.71875 -32.125 C 1.238281 -32.613281 1 -33.191406 1 -33.859375 L 1 -44.875 C 1 -45.539062 1.238281 -46.113281 1.71875 -46.59375 C 2.207031 -47.082031 2.785156 -47.328125 3.453125 -47.328125 L 10.65625 -47.328125 L 10.65625 -62.15625 C 10.65625 -62.832031 10.894531 -63.410156 11.375 -63.890625 C 11.863281 -64.378906 12.441406 -64.625 13.109375 -64.625 L 29.03125 -64.625 C 29.695312 -64.625 30.269531 -64.378906 30.75 -63.890625 C 31.238281 -63.410156 31.484375 -62.832031 31.484375 -62.15625 L 31.484375 -47.328125 L 42.953125 -47.328125 C 43.617188 -47.328125 44.195312 -47.082031 44.6875 -46.59375 C 45.175781 -46.113281 45.421875 -45.539062 45.421875 -44.875 L 45.421875 -33.859375 C 45.421875 -33.191406 45.175781 -32.613281 44.6875 -32.125 C 44.195312 -31.644531 43.617188 -31.40625 42.953125 -31.40625 L 31.484375 -31.40625 L 31.484375 -21.390625 C 31.484375 -18.359375 32.789062 -16.84375 35.40625 -16.84375 L 43.6875 -16.84375 C 44.351562 -16.84375 44.925781 -16.597656 45.40625 -16.109375 C 45.894531 -15.617188 46.140625 -15.039062 46.140625 -14.375 L 46.140625 -2.453125 C 46.140625 -1.785156 45.894531 -1.207031 45.40625 -0.71875 C 44.925781 -0.238281 44.351562 0 43.6875 0 Z M 33.40625 0 "/></g></g></g><g fill="#282642" fill-opacity="1"><g transform="translate(289.389653, 85.725965)"><g><path d="M 19.203125 0.90625 C 15.804688 0.90625 12.753906 0.269531 10.046875 -1 C 7.347656 -2.269531 5.253906 -4 3.765625 -6.1875 C 2.285156 -8.375 1.546875 -10.832031 1.546875 -13.5625 C 1.546875 -21.75 8.191406 -27 21.484375 -29.3125 L 31.125 -30.859375 L 31.125 -30.9375 C 31.125 -32.695312 30.972656 -33.894531 30.671875 -34.53125 C 30.367188 -35.175781 29.609375 -35.5 28.390625 -35.5 C 27.722656 -35.5 27.144531 -35.375 26.65625 -35.125 C 26.175781 -34.882812 25.664062 -34.523438 25.125 -34.046875 C 24.570312 -33.554688 24.097656 -33.1875 23.703125 -32.9375 C 23.316406 -32.695312 22.785156 -32.578125 22.109375 -32.578125 L 6.640625 -32.578125 C 6.097656 -32.578125 5.628906 -32.742188 5.234375 -33.078125 C 4.835938 -33.410156 4.640625 -33.851562 4.640625 -34.40625 C 4.640625 -36.164062 5.503906 -38.132812 7.234375 -40.3125 C 8.960938 -42.5 11.628906 -44.363281 15.234375 -45.90625 C 18.847656 -47.457031 23.296875 -48.234375 28.578125 -48.234375 C 36.710938 -48.234375 42.8125 -46.535156 46.875 -43.140625 C 50.9375 -39.742188 52.96875 -34.890625 52.96875 -28.578125 L 52.96875 -2.453125 C 52.96875 -1.785156 52.722656 -1.207031 52.234375 -0.71875 C 51.753906 -0.238281 51.179688 0 50.515625 0 L 34.578125 0 C 33.910156 0 33.332031 -0.238281 32.84375 -0.71875 C 32.363281 -1.207031 32.125 -1.785156 32.125 -2.453125 L 32.125 -5 C 30.789062 -3.1875 29 -1.75 26.75 -0.6875 C 24.507812 0.375 21.992188 0.90625 19.203125 0.90625 Z M 25.484375 -12.5625 C 27.304688 -12.5625 28.75 -13.132812 29.8125 -14.28125 C 30.875 -15.4375 31.40625 -17.195312 31.40625 -19.5625 L 31.40625 -19.65625 L 26.03125 -18.46875 C 23.363281 -17.863281 22.03125 -16.742188 22.03125 -15.109375 C 22.03125 -14.378906 22.332031 -13.769531 22.9375 -13.28125 C 23.539062 -12.800781 24.390625 -12.5625 25.484375 -12.5625 Z M 25.484375 -12.5625 "/></g></g></g><g fill="#fe4c60" fill-opacity="1"><g transform="translate(345.990962, 85.725965)"><g><path d="M 6.28125 0 C 5.613281 0 5.035156 -0.238281 4.546875 -0.71875 C 4.066406 -1.207031 3.828125 -1.785156 3.828125 -2.453125 L 3.828125 -18.296875 C 3.828125 -18.960938 4.066406 -19.535156 4.546875 -20.015625 C 5.035156 -20.503906 5.613281 -20.75 6.28125 -20.75 L 22.109375 -20.75 C 22.785156 -20.75 23.363281 -20.503906 23.84375 -20.015625 C 24.332031 -19.535156 24.578125 -18.960938 24.578125 -18.296875 L 24.578125 -2.453125 C 24.578125 -1.785156 24.332031 -1.207031 23.84375 -0.71875 C 23.363281 -0.238281 22.785156 0 22.109375 0 Z M 6.28125 0 "/></g></g></g></svg>